<svg xmlns="http://www.w3.org/2000/svg" viewBox="0 0 505.69 457.27"><defs><style>.cls-1{fill:#192231;}</style></defs><g id="Capa_2" data-name="Capa 2"><g id="Capa_1-2" data-name="Capa 1"><path class="cls-1" d="M188.22,122.6l-.1-.27L160.59,44.12c-6.42-18,6.46-37.59,25.58-37.77h.39V0H23.49V6.35h.59A55.06,55.06,0,0,1,30,6.7C55.18,9.16,76.87,26.38,85.93,50.36L96.34,78l55.34,147.42,84,223a13.78,13.78,0,0,0,16.63,8.4,14.24,14.24,0,0,0,9.3-8.85l17.17-57.56a23.56,23.56,0,0,0-.39-14.64Z"/><path class="cls-1" d="M342.62,0V6.38a43.62,43.62,0,0,1,42.87,34.43c2.64,12.63,2.19,26.9-.1,41.34a181,181,0,0,1-8.72,33.11L335.85,246.47a.14.14,0,0,0,.26.09L380.77,130.4c10.93-29.09,26.31-56.41,46.3-80.18A202.82,202.82,0,0,1,450.81,26,85,85,0,0,1,505.69,6.38V0Z"/><path class="cls-1" d="M120.2,416.46c-3-14.13-2-31,1-47.87,1.58-8.81,17.56-65.18,27-98.27a1,1,0,0,0-1.87-.63c-14.63,38-38.94,97-53.54,118-11.73,16.8-24.58,32.31-38,43.59A84.87,84.87,0,0,1,0,450.89v6.35H163.07v-6.35A43.68,43.68,0,0,1,120.2,416.46Z"/><path class="cls-1" d="M444.41,451l0,6.26H281.24l.1-6.26h.42c20.2-.21,33.91-20.79,27.21-39.84l-1.53-4.34-.69-2-38.14-99.22h.14L262.4,287.4l-32.28-92.26-16.09-46a154.16,154.16,0,0,1-1.31-97.84L223,19.16A9.65,9.65,0,0,1,234,13a10.21,10.21,0,0,1,7.39,6.69l52,145.23,6.18,17.29,27.21,76.08,0,.12,52.17,135.76,8.71,24.41A45.55,45.55,0,0,0,414.94,446l.24.07A88.58,88.58,0,0,0,444.41,451Z"/></g></g></svg>