<svg xmlns="http://www.w3.org/2000/svg" viewBox="0 0 496 448.51"><defs><style>.cls-1{fill:silver;}.cls-2{fill:#192231;}</style></defs><g id="Capa_2" data-name="Capa 2"><g id="Capa_1-2" data-name="Capa 1"><path class="cls-1" d="M184.61,120.25l-.09-.26-27-76.72c-6.3-17.63,6.33-36.87,25.09-37H183V0H23V6.23h.58a55.8,55.8,0,0,1,5.82.34C54.12,9,75.4,25.87,84.28,49.4L94.5,76.47l54.27,144.6,82.42,218.7A13.51,13.51,0,0,0,247.5,448a14,14,0,0,0,9.13-8.68l16.83-56.46a23.12,23.12,0,0,0-.37-14.36Z"/><path class="cls-1" d="M336.06,0V6.26A42.79,42.79,0,0,1,378.1,40c2.59,12.39,2.15,26.38-.1,40.55a178.45,178.45,0,0,1-8.54,32.47l-40,128.7a.14.14,0,0,0,.26.09l43.8-113.94c10.73-28.53,25.81-55.32,45.42-78.65a197.91,197.91,0,0,1,23.29-23.72A83.28,83.28,0,0,1,496,6.26V0Z"/><path class="cls-2" d="M117.9,408.48c-2.9-13.86-1.94-30.37,1-47,1.55-8.65,17.22-63.94,26.5-96.39a1,1,0,0,0-1.83-.62c-14.35,37.3-38.19,95.18-52.52,115.7C79.56,396.7,67,411.92,53.82,423A83.26,83.26,0,0,1,0,442.25v6.23H159.94v-6.23A42.84,42.84,0,0,1,117.9,408.48Z"/><path class="cls-2" d="M435.89,442.37l0,6.14h-160l.1-6.14h.41c19.81-.2,33.26-20.39,26.69-39.08l-1.5-4.26-.68-2-37.41-97.33h.14l-6.23-17.84L225.71,191.4l-15.78-45.11a151.21,151.21,0,0,1-1.29-96l10.09-31.54a9.47,9.47,0,0,1,10.76-6.09,10,10,0,0,1,7.25,6.57l51,142.44,6.06,17,26.69,74.62,0,.12,51.17,133.16,8.55,23.94A44.6,44.6,0,0,0,407,437.43l.24.07A86.79,86.79,0,0,0,435.89,442.37Z"/></g></g></svg>