<svg xmlns="http://www.w3.org/2000/svg" viewBox="0 0 2483.69 457.27"><defs><style>.cls-1{fill:#192231;}</style></defs><g id="Capa_2" data-name="Capa 2"><g id="Capa_1-2" data-name="Capa 1"><path class="cls-1" d="M573.47,283.69H487.56l-15.82,43.8H444.61l71.21-195.83h29.67l70.93,195.83H589.29Zm-7.35-20.91-35.6-99.47-35.61,99.47Z"/><path class="cls-1" d="M834.43,234.8a51.61,51.61,0,0,1,14.13,17.52,51,51,0,0,1-2.4,49.31q-7.63,12-22.19,18.94t-34.33,6.92H716.17v-197h70.64q20.07,0,34.2,6.64t21.19,18a47,47,0,0,1,7.06,25.43q0,17.52-9.46,29t-25,16.53A41.73,41.73,0,0,1,834.43,234.8Zm-92.55-19.21h43.24q18.07,0,28-8.48T823,183.66q0-15-9.89-23.46t-28.54-8.48H741.88Zm75.45,81.66q10.74-9,10.74-25.15,0-16.38-11.3-25.85t-30.24-9.47H741.88V306.3h45.5Q806.6,306.3,817.33,297.25Z"/><path class="cls-1" d="M997.33,316.61a94.06,94.06,0,0,1-35.74-35.89q-13.14-23-13.14-51.85T961.59,177a94.06,94.06,0,0,1,35.74-35.89,99.4,99.4,0,0,1,50-12.86q27.69,0,50.3,12.86a93.31,93.31,0,0,1,35.6,35.74q13,22.89,13,52t-13,52a93.34,93.34,0,0,1-35.6,35.75q-22.62,12.86-50.3,12.86A99.4,99.4,0,0,1,997.33,316.61Zm87.18-19.07a67.77,67.77,0,0,0,26-27.41q9.45-17.81,9.46-41.26,0-23.75-9.46-41.4a68.31,68.31,0,0,0-25.86-27.27q-16.39-9.6-37.3-9.61t-37.3,9.61a68.18,68.18,0,0,0-25.86,27.27q-9.47,17.67-9.46,41.4,0,23.46,9.46,41.26a67.71,67.71,0,0,0,26,27.41q16.53,9.6,37.16,9.6T1084.51,297.54Z"/><path class="cls-1" d="M1398,187.61a61.28,61.28,0,0,0-23.74-26.7q-15.54-9.47-36.17-9.47T1301,160.91A66.75,66.75,0,0,0,1275,188q-9.48,17.66-9.47,40.83t9.47,40.69a67,67,0,0,0,26,27q16.53,9.46,37.16,9.46,28.83,0,47.47-17.23t21.76-46.63H1328.8V221.24h106V241a97.8,97.8,0,0,1-15.26,44.51,94.25,94.25,0,0,1-34.19,31.93q-21.19,11.73-47.19,11.72-27.4,0-50-12.85a94.39,94.39,0,0,1-35.74-35.75q-13.14-22.89-13.14-51.71T1252.36,177a94.06,94.06,0,0,1,35.74-35.89,99.43,99.43,0,0,1,50-12.86q31.37,0,55.53,15.54t35.18,43.8Z"/><path class="cls-1" d="M1653.76,283.69h-85.9L1552,327.49h-27.12l71.21-195.83h29.67l70.92,195.83h-27.12Zm-7.35-20.91-35.6-99.47-35.61,99.47Z"/><path class="cls-1" d="M1913.59,142.54a84.42,84.42,0,0,1,36.17,34.33q12.57,22.33,12.58,52.56t-12.58,52.42a82.87,82.87,0,0,1-36.17,33.91q-23.6,11.73-55.81,11.73h-61.32v-197h61.32Q1890,130.53,1913.59,142.54Zm2.4,143.55q20.07-20.2,20.07-56.66,0-36.72-20.21-57.36t-58.07-20.63h-35.6V306.3h35.6Q1895.93,306.3,1916,286.09Z"/><path class="cls-1" d="M2104.19,316.61a94,94,0,0,1-35.75-35.89q-13.14-23-13.14-51.85T2068.44,177a94,94,0,0,1,35.75-35.89,99.39,99.39,0,0,1,50-12.86q27.69,0,50.3,12.86a93.41,93.41,0,0,1,35.61,35.74q13,22.89,13,52t-13,52a93.43,93.43,0,0,1-35.61,35.75q-22.61,12.86-50.3,12.86A99.39,99.39,0,0,1,2104.19,316.61Zm87.17-19.07a67.71,67.71,0,0,0,26-27.41q9.46-17.81,9.47-41.26,0-23.75-9.47-41.4a68.18,68.18,0,0,0-25.86-27.27q-16.38-9.6-37.3-9.61t-37.3,9.61a68.22,68.22,0,0,0-25.85,27.27q-9.48,17.67-9.47,41.4,0,23.46,9.47,41.26a67.68,67.68,0,0,0,26,27.41,72.66,72.66,0,0,0,37.16,9.6Q2174.82,307.14,2191.36,297.54Z"/><path class="cls-1" d="M2383.23,322.54q-15.41-6.92-24.16-19.21a49.18,49.18,0,0,1-9-28.4h27.41a36.11,36.11,0,0,0,11.44,23.31q10,9.48,29.25,9.47,18.36,0,29-9.19t10.59-23.59q0-11.3-6.21-18.37a39.77,39.77,0,0,0-15.55-10.74,245.64,245.64,0,0,0-25.15-7.91q-19.49-5.08-31.22-10.17a50.16,50.16,0,0,1-20.06-16q-8.34-10.87-8.34-29.24a50.62,50.62,0,0,1,8.2-28.54,53.33,53.33,0,0,1,23-19.22q14.85-6.78,34.06-6.78,27.69,0,45.35,13.84t19.92,36.74h-28.26q-1.41-11.3-11.86-19.92t-27.7-8.62q-16.11,0-26.28,8.33t-10.17,23.32q0,10.74,6.08,17.52a39,39,0,0,0,15,10.31q8.91,3.54,25,8.06,19.5,5.37,31.37,10.59a52.38,52.38,0,0,1,20.34,16.11q8.48,10.88,8.48,29.53a51.83,51.83,0,0,1-7.63,27.13q-7.64,12.7-22.61,20.62t-35.32,7.92Q2398.63,329.47,2383.23,322.54Z"/><path class="cls-1" d="M188.22,122.6l-.1-.27L160.59,44.12c-6.42-18,6.46-37.59,25.58-37.77h.39V0H23.49V6.35h.59A55.06,55.06,0,0,1,30,6.7C55.18,9.16,76.87,26.38,85.93,50.36L96.34,78l55.34,147.42,84,223a13.78,13.78,0,0,0,16.63,8.4,14.24,14.24,0,0,0,9.3-8.85l17.17-57.56a23.56,23.56,0,0,0-.39-14.64Z"/><path class="cls-1" d="M342.62,0V6.38a43.62,43.62,0,0,1,42.87,34.43c2.64,12.63,2.19,26.9-.1,41.34a181,181,0,0,1-8.72,33.11L335.85,246.47a.14.14,0,0,0,.26.09L380.77,130.4c10.93-29.09,26.31-56.41,46.3-80.18A202.82,202.82,0,0,1,450.81,26,85,85,0,0,1,505.69,6.38V0Z"/><path class="cls-1" d="M120.2,416.46c-3-14.13-2-31,1-47.87,1.58-8.81,17.56-65.18,27-98.27a1,1,0,0,0-1.87-.63c-14.63,38-38.94,97-53.54,118-11.73,16.8-24.58,32.31-38,43.59A84.87,84.87,0,0,1,0,450.89v6.35H163.07v-6.35A43.68,43.68,0,0,1,120.2,416.46Z"/><path class="cls-1" d="M444.41,451l0,6.26H281.24l.1-6.26h.42c20.2-.21,33.91-20.79,27.21-39.84l-1.53-4.34-.69-2-38.14-99.22h.14L262.4,287.4l-32.28-92.26-16.09-46a154.16,154.16,0,0,1-1.31-97.84L223,19.16A9.65,9.65,0,0,1,234,13a10.21,10.21,0,0,1,7.39,6.69l52,145.23,6.18,17.29,27.21,76.08,0,.12,52.17,135.76,8.71,24.41A45.55,45.55,0,0,0,414.94,446l.24.07A88.58,88.58,0,0,0,444.41,451Z"/></g></g></svg>