<svg xmlns="http://www.w3.org/2000/svg" viewBox="0 0 911.08 585.73"><defs><style>.cls-1{fill:silver;}</style></defs><g id="Capa_2" data-name="Capa 2"><g id="Capa_1-2" data-name="Capa 1"><path class="cls-1" d="M57.57,565.27H19.19l-7.07,19.57H0l31.82-87.5H45.07l31.7,87.5H64.64Zm-3.28-9.34L38.38,511.49,22.47,555.93Z"/><path class="cls-1" d="M174.17,543.43a23,23,0,0,1,6.32,7.83,22.79,22.79,0,0,1-1.08,22,23.08,23.08,0,0,1-9.91,8.46,35.41,35.41,0,0,1-15.34,3.09H121.33v-88H152.9a35.71,35.71,0,0,1,15.28,3,21.75,21.75,0,0,1,9.47,8,21.06,21.06,0,0,1,3.15,11.37q0,7.83-4.23,12.94a23.6,23.6,0,0,1-11.17,7.38A18.66,18.66,0,0,1,174.17,543.43Zm-41.35-8.59h19.32q8.09,0,12.5-3.78t4.42-10.48q0-6.69-4.42-10.48t-12.75-3.79H132.82Zm33.71,36.49q4.8-4,4.8-11.24t-5.05-11.55q-5.06-4.23-13.51-4.23h-20v31.06h20.33Q161.73,575.37,166.53,571.33Z"/><path class="cls-1" d="M247,580a42,42,0,0,1-16-16,48.66,48.66,0,0,1,0-46.34,42.13,42.13,0,0,1,16-16,46.62,46.62,0,0,1,44.82,0,41.75,41.75,0,0,1,15.91,16,49.35,49.35,0,0,1,0,46.46,41.66,41.66,0,0,1-15.91,16A46.54,46.54,0,0,1,247,580Zm39-8.52a30.2,30.2,0,0,0,11.62-12.25,42.42,42.42,0,0,0,0-36.93A30.39,30.39,0,0,0,286,510.1a34.44,34.44,0,0,0-33.33,0,30.44,30.44,0,0,0-11.55,12.18,42.42,42.42,0,0,0,0,36.93,30.2,30.2,0,0,0,11.62,12.25,34.26,34.26,0,0,0,33.2,0Z"/><path class="cls-1" d="M426,522.34a27.36,27.36,0,0,0-10.6-11.93,30.45,30.45,0,0,0-16.16-4.23,32.83,32.83,0,0,0-16.61,4.23A29.9,29.9,0,0,0,371,522.53a38.06,38.06,0,0,0-4.23,18.25A37.66,37.66,0,0,0,371,559,30,30,0,0,0,382.62,571a32.83,32.83,0,0,0,16.61,4.23q12.87,0,21.21-7.71t9.72-20.83h-35.1v-9.34h47.35v8.84a43.74,43.74,0,0,1-6.82,19.88,42,42,0,0,1-15.28,14.27,42.83,42.83,0,0,1-21.08,5.24,44.29,44.29,0,0,1-22.35-5.75,42.09,42.09,0,0,1-16-16,48.53,48.53,0,0,1,0-46.27,42.13,42.13,0,0,1,16-16,44.39,44.39,0,0,1,22.35-5.74A44.94,44.94,0,0,1,424,502.77a39.85,39.85,0,0,1,15.72,19.57Z"/><path class="cls-1" d="M540.26,565.27H501.88l-7.07,19.57H482.69l31.81-87.5h13.26l31.69,87.5H547.33ZM537,555.93l-15.91-44.44-15.91,44.44Z"/><path class="cls-1" d="M656.35,502.21a37.62,37.62,0,0,1,16.16,15.34q5.63,10,5.62,23.48t-5.62,23.42a37,37,0,0,1-16.16,15.15q-10.54,5.25-24.93,5.24H604v-88h27.4Q645.81,496.84,656.35,502.21Zm1.08,64.13q9-9,9-25.31t-9-25.63q-9-9.21-25.94-9.22H615.51v69.19h15.91Q648.46,575.37,657.43,566.34Z"/><path class="cls-1" d="M741.51,580a42.1,42.1,0,0,1-16-16,48.66,48.66,0,0,1,0-46.34,42.2,42.2,0,0,1,16-16,46.64,46.64,0,0,1,44.83,0,41.8,41.8,0,0,1,15.9,16,49.35,49.35,0,0,1,0,46.46,41.7,41.7,0,0,1-15.9,16,46.56,46.56,0,0,1-44.83,0Zm39-8.52a30.2,30.2,0,0,0,11.62-12.25,42.42,42.42,0,0,0,0-36.93,30.44,30.44,0,0,0-11.55-12.18,34.46,34.46,0,0,0-33.34,0,30.44,30.44,0,0,0-11.55,12.18,42.42,42.42,0,0,0,0,36.93,30.2,30.2,0,0,0,11.62,12.25,34.26,34.26,0,0,0,33.2,0Z"/><path class="cls-1" d="M866.19,582.63a25.94,25.94,0,0,1-10.79-8.58,22,22,0,0,1-4-12.69H863.6a16.12,16.12,0,0,0,5.12,10.41q4.49,4.23,13.07,4.23,8.21,0,12.94-4.1a13.32,13.32,0,0,0,4.73-10.54,11.94,11.94,0,0,0-2.78-8.21,17.81,17.81,0,0,0-6.94-4.8,108.86,108.86,0,0,0-11.24-3.53,99.07,99.07,0,0,1-14-4.55,22.41,22.41,0,0,1-9-7.13q-3.74-4.86-3.73-13.07a22.63,22.63,0,0,1,3.66-12.75,23.93,23.93,0,0,1,10.29-8.59,36.24,36.24,0,0,1,15.22-3q12.38,0,20.26,6.19a22.84,22.84,0,0,1,8.9,16.41H897.57a13.65,13.65,0,0,0-5.3-8.9q-4.68-3.84-12.38-3.85-7.2,0-11.74,3.73t-4.55,10.41a11.29,11.29,0,0,0,2.72,7.83,17.49,17.49,0,0,0,6.69,4.61q4,1.57,11.17,3.6a106.42,106.42,0,0,1,14,4.73,23.42,23.42,0,0,1,9.09,7.2q3.8,4.86,3.79,13.19A23.15,23.15,0,0,1,907.67,573a25.06,25.06,0,0,1-10.1,9.22,33.28,33.28,0,0,1-15.78,3.54A37.55,37.55,0,0,1,866.19,582.63Z"/><path class="cls-1" d="M380,119.38l-.1-.27L353.07,43C346.81,25.45,359.35,6.35,378,6.19h.37V0H219.57V6.19h.58a54.7,54.7,0,0,1,5.77.33c24.51,2.4,45.63,19.17,54.45,42.52l10.14,26.87,53.87,143.54,81.83,217.11a13.41,13.41,0,0,0,16.19,8.18,13.86,13.86,0,0,0,9.05-8.62l16.72-56.05a22.92,22.92,0,0,0-.38-14.25Z"/><path class="cls-1" d="M530.3,0V6.21A42.48,42.48,0,0,1,572,39.74c2.57,12.3,2.13,26.19-.1,40.25a177,177,0,0,1-8.48,32.24L523.71,240a.13.13,0,0,0,.25.09L567.45,127a266.81,266.81,0,0,1,45.08-78.07,195.8,195.8,0,0,1,23.12-23.55A82.72,82.72,0,0,1,689.08,6.21V0Z"/><path class="cls-1" d="M313.74,405.5c-2.88-13.76-1.93-30.15,1-46.61,1.54-8.58,17.1-63.47,26.31-95.68a1,1,0,0,0-1.82-.62c-14.25,37-37.92,94.48-52.14,114.85-11.42,16.36-23.92,31.47-37,42.45A82.66,82.66,0,0,1,196.7,439v6.19H355.47V439A42.52,42.52,0,0,1,313.74,405.5Z"/><path class="cls-1" d="M629.41,439.14l0,6.09H470.54l.09-6.09H471c19.67-.2,33-20.24,26.49-38.8l-1.48-4.22-.68-2-37.13-96.62h.13l-6.18-17.71L420.76,190,405.1,145.22A150.09,150.09,0,0,1,403.82,50l10-31.3a9.39,9.39,0,0,1,10.68-6.05,9.94,9.94,0,0,1,7.2,6.52l50.59,141.4,6,16.83,26.49,74.08,0,.12,50.8,132.19,8.48,23.76a44.3,44.3,0,0,0,26.67,26.73l.23.07A86.15,86.15,0,0,0,629.41,439.14Z"/></g></g></svg>