<svg xmlns="http://www.w3.org/2000/svg" viewBox="0 0 911.08 90.02"><defs><style>.cls-1{fill:silver;}</style></defs><g id="Capa_2" data-name="Capa 2"><g id="Capa_1-2" data-name="Capa 1"><path class="cls-1" d="M57.57,69.57H19.19L12.12,89.14H0L31.82,1.64H45.07l31.7,87.5H64.64Zm-3.28-9.34L38.38,15.78,22.47,60.23Z"/><path class="cls-1" d="M174.17,47.73a23,23,0,0,1,6.32,7.82,22.81,22.81,0,0,1-1.08,22,23.22,23.22,0,0,1-9.91,8.46,35.41,35.41,0,0,1-15.34,3.09H121.33v-88H152.9a35.87,35.87,0,0,1,15.28,3,21.77,21.77,0,0,1,9.47,8,21,21,0,0,1,3.15,11.36q0,7.83-4.23,13a23.67,23.67,0,0,1-11.17,7.38A18.57,18.57,0,0,1,174.17,47.73Zm-41.35-8.59h19.32q8.09,0,12.5-3.79t4.42-10.48q0-6.69-4.42-10.48t-12.75-3.78H132.82Zm33.71,36.49q4.8-4,4.8-11.24t-5.05-11.55q-5.06-4.23-13.51-4.23h-20V79.67h20.33Q161.73,79.67,166.53,75.63Z"/><path class="cls-1" d="M247,84.28a42.06,42.06,0,0,1-16-16,45.85,45.85,0,0,1-5.87-23.17A45.83,45.83,0,0,1,231,21.91a42.06,42.06,0,0,1,16-16,46.62,46.62,0,0,1,44.82,0,41.66,41.66,0,0,1,15.91,16,46.26,46.26,0,0,1,5.81,23.23,46.27,46.27,0,0,1-5.81,23.24,41.73,41.73,0,0,1-15.91,16,46.62,46.62,0,0,1-44.82,0Zm39-8.52a30.26,30.26,0,0,0,11.62-12.25,38.69,38.69,0,0,0,4.23-18.44,38.56,38.56,0,0,0-4.23-18.49A30.48,30.48,0,0,0,286,14.39a34.51,34.51,0,0,0-33.33,0,30.53,30.53,0,0,0-11.55,12.19,38.56,38.56,0,0,0-4.23,18.49,38.69,38.69,0,0,0,4.23,18.44,30.26,30.26,0,0,0,11.62,12.25,34.26,34.26,0,0,0,33.2,0Z"/><path class="cls-1" d="M426,26.64a27.36,27.36,0,0,0-10.6-11.93,30.45,30.45,0,0,0-16.16-4.23,32.83,32.83,0,0,0-16.61,4.23A29.9,29.9,0,0,0,371,26.83a38,38,0,0,0-4.23,18.24A37.68,37.68,0,0,0,371,63.26a30,30,0,0,0,11.61,12.05,32.83,32.83,0,0,0,16.61,4.23q12.87,0,21.21-7.7T430.16,51h-35.1V41.67h47.35V50.5a43.82,43.82,0,0,1-6.82,19.89,42.12,42.12,0,0,1-15.28,14.27,42.83,42.83,0,0,1-21.08,5.24,44.39,44.39,0,0,1-22.35-5.75,42.16,42.16,0,0,1-16-16A45.52,45.52,0,0,1,355,45.07a45.83,45.83,0,0,1,5.87-23.16,42.06,42.06,0,0,1,16-16A44.39,44.39,0,0,1,399.23.13,44.86,44.86,0,0,1,424,7.07a39.8,39.8,0,0,1,15.72,19.57Z"/><path class="cls-1" d="M540.26,69.57H501.88l-7.07,19.57H482.69L514.5,1.64h13.26l31.69,87.5H547.33ZM537,60.23,521.07,15.78,505.16,60.23Z"/><path class="cls-1" d="M656.35,6.5a37.68,37.68,0,0,1,16.16,15.34q5.63,10,5.62,23.49t-5.62,23.42A37,37,0,0,1,656.35,83.9q-10.54,5.23-24.93,5.24H604v-88h27.4Q645.81,1.14,656.35,6.5Zm1.08,64.14q9-9,9-25.31t-9-25.63q-9-9.22-25.94-9.22H615.51V79.67h15.91Q648.46,79.67,657.43,70.64Z"/><path class="cls-1" d="M741.51,84.28a42.13,42.13,0,0,1-16-16,46,46,0,0,1-5.87-23.17,45.94,45.94,0,0,1,5.87-23.16,42.13,42.13,0,0,1,16-16,46.64,46.64,0,0,1,44.83,0,41.7,41.7,0,0,1,15.9,16,46.26,46.26,0,0,1,5.81,23.23,46.27,46.27,0,0,1-5.81,23.24,41.77,41.77,0,0,1-15.9,16,46.64,46.64,0,0,1-44.83,0Zm39-8.52a30.26,30.26,0,0,0,11.62-12.25,38.69,38.69,0,0,0,4.23-18.44,38.56,38.56,0,0,0-4.23-18.49,30.53,30.53,0,0,0-11.55-12.19,34.53,34.53,0,0,0-33.34,0,30.53,30.53,0,0,0-11.55,12.19,38.56,38.56,0,0,0-4.23,18.49,38.69,38.69,0,0,0,4.23,18.44,30.26,30.26,0,0,0,11.62,12.25,34.26,34.26,0,0,0,33.2,0Z"/><path class="cls-1" d="M866.19,86.93a25.88,25.88,0,0,1-10.79-8.59,22,22,0,0,1-4-12.69H863.6a16.12,16.12,0,0,0,5.12,10.42q4.49,4.23,13.07,4.23,8.21,0,12.94-4.1a13.34,13.34,0,0,0,4.73-10.55,11.91,11.91,0,0,0-2.78-8.2,17.6,17.6,0,0,0-6.94-4.8,111,111,0,0,0-11.24-3.54,99.22,99.22,0,0,1-14-4.54,22.5,22.5,0,0,1-9-7.13q-3.74-4.86-3.73-13.07a22.63,22.63,0,0,1,3.66-12.75A23.86,23.86,0,0,1,865.81,3,36.24,36.24,0,0,1,881,0q12.38,0,20.26,6.19a22.82,22.82,0,0,1,8.9,16.41H897.57a13.63,13.63,0,0,0-5.3-8.9q-4.68-3.85-12.38-3.85-7.2,0-11.74,3.72T863.6,24a11.29,11.29,0,0,0,2.72,7.83A17.6,17.6,0,0,0,873,36.43Q877,38,884.18,40a104.8,104.8,0,0,1,14,4.74,23.42,23.42,0,0,1,9.09,7.2q3.8,4.86,3.79,13.19a23.2,23.2,0,0,1-3.41,12.12,25.06,25.06,0,0,1-10.1,9.22A33.4,33.4,0,0,1,881.79,90,37.71,37.71,0,0,1,866.19,86.93Z"/></g></g></svg>