<svg xmlns="http://www.w3.org/2000/svg" viewBox="0 0 911.08 590.46"><defs><style>.cls-1{fill:#192231;}</style></defs><g id="Capa_2" data-name="Capa 2"><g id="Capa_1-2" data-name="Capa 1"><path class="cls-1" d="M57.57,570H19.19l-7.07,19.57H0l31.82-87.5H45.07l31.7,87.5H64.64Zm-3.28-9.35L38.38,516.22,22.47,560.66Z"/><path class="cls-1" d="M174.17,548.17a23,23,0,0,1,6.32,7.82,22.81,22.81,0,0,1-1.08,22,23.13,23.13,0,0,1-9.91,8.45,35.26,35.26,0,0,1-15.34,3.1H121.33v-88H152.9a35.87,35.87,0,0,1,15.28,3,21.7,21.7,0,0,1,9.47,8,21,21,0,0,1,3.15,11.36q0,7.83-4.23,12.94a23.62,23.62,0,0,1-11.17,7.39A18.57,18.57,0,0,1,174.17,548.17Zm-41.35-8.59h19.32q8.09,0,12.5-3.79t4.42-10.48q0-6.69-4.42-10.48T151.89,511H132.82Zm33.71,36.49q4.8-4,4.8-11.24t-5.05-11.55q-5.06-4.23-13.51-4.23h-20v31.06h20.33Q161.73,580.11,166.53,576.07Z"/><path class="cls-1" d="M247,584.72a42.06,42.06,0,0,1-16-16,48.64,48.64,0,0,1,0-46.33,42.06,42.06,0,0,1,16-16,46.62,46.62,0,0,1,44.82,0,41.66,41.66,0,0,1,15.91,16,49.37,49.37,0,0,1,0,46.47,41.73,41.73,0,0,1-15.91,16,46.62,46.62,0,0,1-44.82,0Zm39-8.53A30.17,30.17,0,0,0,297.53,564a42.42,42.42,0,0,0,0-36.93A30.48,30.48,0,0,0,286,514.83a34.51,34.51,0,0,0-33.33,0A30.53,30.53,0,0,0,241.09,527a42.42,42.42,0,0,0,0,36.93,30.17,30.17,0,0,0,11.62,12.24,34.19,34.19,0,0,0,33.2,0Z"/><path class="cls-1" d="M426,527.08a27.36,27.36,0,0,0-10.6-11.93,30.45,30.45,0,0,0-16.16-4.23,32.83,32.83,0,0,0-16.61,4.23A29.9,29.9,0,0,0,371,527.27a38,38,0,0,0-4.23,18.24A37.61,37.61,0,0,0,371,563.69a30,30,0,0,0,11.61,12.06A32.83,32.83,0,0,0,399.23,580q12.87,0,21.21-7.7t9.72-20.83h-35.1V542.1h47.35v8.84a43.82,43.82,0,0,1-6.82,19.89,42.12,42.12,0,0,1-15.28,14.27,42.83,42.83,0,0,1-21.08,5.24,44.39,44.39,0,0,1-22.35-5.75,42.16,42.16,0,0,1-16-16,48.53,48.53,0,0,1,0-46.27,42.06,42.06,0,0,1,16-16,44.39,44.39,0,0,1,22.35-5.74A44.86,44.86,0,0,1,424,507.51a39.8,39.8,0,0,1,15.72,19.57Z"/><path class="cls-1" d="M540.26,570H501.88l-7.07,19.57H482.69l31.81-87.5h13.26l31.69,87.5H547.33ZM537,560.66l-15.91-44.44-15.91,44.44Z"/><path class="cls-1" d="M656.35,506.94a37.68,37.68,0,0,1,16.16,15.34q5.63,10,5.62,23.49t-5.62,23.42a37,37,0,0,1-16.16,15.15q-10.54,5.24-24.93,5.24H604v-88h27.4Q645.81,501.58,656.35,506.94Zm1.08,64.14q9-9,9-25.31t-9-25.63q-9-9.22-25.94-9.22H615.51v69.19h15.91Q648.46,580.11,657.43,571.08Z"/><path class="cls-1" d="M741.51,584.72a42.13,42.13,0,0,1-16-16,48.64,48.64,0,0,1,0-46.33,42.13,42.13,0,0,1,16-16,46.64,46.64,0,0,1,44.83,0,41.7,41.7,0,0,1,15.9,16,49.37,49.37,0,0,1,0,46.47,41.77,41.77,0,0,1-15.9,16,46.64,46.64,0,0,1-44.83,0Zm39-8.53A30.17,30.17,0,0,0,792.08,564a42.42,42.42,0,0,0,0-36.93,30.53,30.53,0,0,0-11.55-12.19,34.53,34.53,0,0,0-33.34,0A30.53,30.53,0,0,0,735.64,527a42.42,42.42,0,0,0,0,36.93,30.17,30.17,0,0,0,11.62,12.24,34.19,34.19,0,0,0,33.2,0Z"/><path class="cls-1" d="M866.19,587.37a26,26,0,0,1-10.79-8.59,22,22,0,0,1-4-12.69H863.6a16.12,16.12,0,0,0,5.12,10.42q4.49,4.23,13.07,4.23,8.21,0,12.94-4.1a13.34,13.34,0,0,0,4.73-10.55,11.91,11.91,0,0,0-2.78-8.2,17.6,17.6,0,0,0-6.94-4.8,111,111,0,0,0-11.24-3.54,99.22,99.22,0,0,1-14-4.54,22.5,22.5,0,0,1-9-7.13q-3.74-4.86-3.73-13.07a22.63,22.63,0,0,1,3.66-12.75,23.86,23.86,0,0,1,10.29-8.59,36.24,36.24,0,0,1,15.22-3q12.38,0,20.26,6.19a22.82,22.82,0,0,1,8.9,16.41H897.57a13.63,13.63,0,0,0-5.3-8.9q-4.68-3.86-12.38-3.85-7.2,0-11.74,3.72t-4.55,10.42a11.29,11.29,0,0,0,2.72,7.83,17.47,17.47,0,0,0,6.69,4.6,115.64,115.64,0,0,0,11.17,3.6,104.8,104.8,0,0,1,14,4.74,23.48,23.48,0,0,1,9.09,7.19c2.53,3.25,3.79,7.64,3.79,13.2a23.2,23.2,0,0,1-3.41,12.12,25.06,25.06,0,0,1-10.1,9.22,33.4,33.4,0,0,1-15.78,3.53A37.71,37.71,0,0,1,866.19,587.37Z"/><path class="cls-1" d="M404.61,122.6l-.1-.27L377,44.12c-6.42-18,6.46-37.59,25.58-37.77h.38V0H239.88V6.35h.59a55.06,55.06,0,0,1,5.93.35c25.17,2.46,46.86,19.68,55.92,43.66L312.73,78l55.34,147.42,84,223a13.77,13.77,0,0,0,16.63,8.4,14.26,14.26,0,0,0,9.3-8.85l17.17-57.56a23.64,23.64,0,0,0-.39-14.64Z"/><path class="cls-1" d="M559,0V6.38a43.62,43.62,0,0,1,42.87,34.43c2.64,12.63,2.18,26.9-.11,41.34a181,181,0,0,1-8.71,33.11L552.24,246.47a.14.14,0,0,0,.26.09L597.16,130.4c10.93-29.09,26.31-56.41,46.3-80.18A202.82,202.82,0,0,1,667.2,26,85,85,0,0,1,722.08,6.38V0Z"/><path class="cls-1" d="M336.59,416.46c-2.95-14.13-2-31,1-47.87,1.58-8.81,17.56-65.18,27-98.27a1,1,0,0,0-1.87-.63c-14.63,38-38.94,97-53.54,118-11.73,16.8-24.58,32.31-38,43.59a84.82,84.82,0,0,1-54.87,19.65v6.35H379.46v-6.35A43.68,43.68,0,0,1,336.59,416.46Z"/><path class="cls-1" d="M660.79,451v6.26H497.63l.1-6.26h.42c20.2-.21,33.91-20.79,27.21-39.84l-1.53-4.34-.69-2L485,305.59h.14l-6.35-18.19-32.28-92.26-16.09-46a154.16,154.16,0,0,1-1.31-97.84l10.28-32.15a9.65,9.65,0,0,1,11-6.21,10.21,10.21,0,0,1,7.39,6.69l52,145.23,6.18,17.29,27.21,76.08,0,.12,52.17,135.76,8.71,24.41A45.52,45.52,0,0,0,631.33,446l.24.07A88.57,88.57,0,0,0,660.79,451Z"/></g></g></svg>