<svg xmlns="http://www.w3.org/2000/svg" viewBox="0 0 911.08 605.49"><defs><style>.cls-1{fill:#192231;}.cls-2{fill:silver;}</style></defs><g id="Capa_2" data-name="Capa 2"><g id="Capa_1-2" data-name="Capa 1"><path class="cls-1" d="M57.57,585H19.19l-7.07,19.57H0l31.82-87.5H45.07l31.7,87.5H64.64Zm-3.28-9.34L38.38,531.25,22.47,575.7Z"/><path class="cls-1" d="M174.17,563.2a23,23,0,0,1,6.32,7.82,22.81,22.81,0,0,1-1.08,22,23.22,23.22,0,0,1-9.91,8.46,35.41,35.41,0,0,1-15.34,3.09H121.33v-88H152.9a35.87,35.87,0,0,1,15.28,3,21.77,21.77,0,0,1,9.47,8A21,21,0,0,1,180.8,539q0,7.83-4.23,12.95a23.67,23.67,0,0,1-11.17,7.38A18.57,18.57,0,0,1,174.17,563.2Zm-41.35-8.59h19.32q8.09,0,12.5-3.79t4.42-10.48q0-6.69-4.42-10.48t-12.75-3.78H132.82Zm33.71,36.49q4.8-4,4.8-11.24t-5.05-11.55q-5.06-4.23-13.51-4.23h-20v31.06h20.33Q161.73,595.14,166.53,591.1Z"/><path class="cls-1" d="M247,599.75a42.06,42.06,0,0,1-16-16,48.64,48.64,0,0,1,0-46.33,42.06,42.06,0,0,1,16-16,46.62,46.62,0,0,1,44.82,0,41.66,41.66,0,0,1,15.91,16,49.37,49.37,0,0,1,0,46.47,41.73,41.73,0,0,1-15.91,16,46.62,46.62,0,0,1-44.82,0Zm39-8.52A30.26,30.26,0,0,0,297.53,579a42.42,42.42,0,0,0,0-36.93A30.48,30.48,0,0,0,286,529.86a34.51,34.51,0,0,0-33.33,0,30.53,30.53,0,0,0-11.55,12.19,42.42,42.42,0,0,0,0,36.93,30.26,30.26,0,0,0,11.62,12.25,34.26,34.26,0,0,0,33.2,0Z"/><path class="cls-1" d="M426,542.11a27.36,27.36,0,0,0-10.6-11.93A30.45,30.45,0,0,0,399.23,526a32.83,32.83,0,0,0-16.61,4.23A29.9,29.9,0,0,0,371,542.3a41.33,41.33,0,0,0,0,36.43,30,30,0,0,0,11.61,12A32.83,32.83,0,0,0,399.23,595q12.87,0,21.21-7.7t9.72-20.83h-35.1v-9.34h47.35V566a43.82,43.82,0,0,1-6.82,19.89,42.12,42.12,0,0,1-15.28,14.27,42.83,42.83,0,0,1-21.08,5.24,44.39,44.39,0,0,1-22.35-5.75,42.16,42.16,0,0,1-16-16,48.53,48.53,0,0,1,0-46.27,42.06,42.06,0,0,1,16-16,44.39,44.39,0,0,1,22.35-5.74A44.86,44.86,0,0,1,424,522.54a39.8,39.8,0,0,1,15.72,19.57Z"/><path class="cls-1" d="M540.26,585H501.88l-7.07,19.57H482.69l31.81-87.5h13.26l31.69,87.5H547.33ZM537,575.7l-15.91-44.45L505.16,575.7Z"/><path class="cls-1" d="M656.35,522a37.68,37.68,0,0,1,16.16,15.34q5.63,10,5.62,23.49t-5.62,23.42a37,37,0,0,1-16.16,15.15q-10.54,5.24-24.93,5.24H604v-88h27.4Q645.81,516.61,656.35,522Zm1.08,64.14q9-9,9-25.31t-9-25.63q-9-9.23-25.94-9.22H615.51v69.19h15.91Q648.46,595.14,657.43,586.11Z"/><path class="cls-1" d="M741.51,599.75a42.13,42.13,0,0,1-16-16,48.64,48.64,0,0,1,0-46.33,42.13,42.13,0,0,1,16-16,46.64,46.64,0,0,1,44.83,0,41.7,41.7,0,0,1,15.9,16,49.37,49.37,0,0,1,0,46.47,41.77,41.77,0,0,1-15.9,16,46.64,46.64,0,0,1-44.83,0Zm39-8.52A30.26,30.26,0,0,0,792.08,579a42.42,42.42,0,0,0,0-36.93,30.53,30.53,0,0,0-11.55-12.19,34.53,34.53,0,0,0-33.34,0,30.53,30.53,0,0,0-11.55,12.19,42.42,42.42,0,0,0,0,36.93,30.26,30.26,0,0,0,11.62,12.25,34.26,34.26,0,0,0,33.2,0Z"/><path class="cls-1" d="M866.19,602.4a25.88,25.88,0,0,1-10.79-8.59,22,22,0,0,1-4-12.69H863.6a16.12,16.12,0,0,0,5.12,10.42q4.49,4.23,13.07,4.23,8.21,0,12.94-4.1a13.34,13.34,0,0,0,4.73-10.55,11.91,11.91,0,0,0-2.78-8.2,17.71,17.71,0,0,0-6.94-4.8,111,111,0,0,0-11.24-3.54,99.22,99.22,0,0,1-14-4.54,22.5,22.5,0,0,1-9-7.13q-3.74-4.86-3.73-13.07a22.63,22.63,0,0,1,3.66-12.75,23.86,23.86,0,0,1,10.29-8.59,36.24,36.24,0,0,1,15.22-3q12.38,0,20.26,6.19a22.82,22.82,0,0,1,8.9,16.41H897.57a13.65,13.65,0,0,0-5.3-8.9q-4.68-3.85-12.38-3.85-7.2,0-11.74,3.72t-4.55,10.42a11.29,11.29,0,0,0,2.72,7.83A17.6,17.6,0,0,0,873,551.9q4,1.58,11.17,3.59a104.8,104.8,0,0,1,14,4.74,23.42,23.42,0,0,1,9.09,7.2q3.8,4.86,3.79,13.19a23.2,23.2,0,0,1-3.41,12.12,25.06,25.06,0,0,1-10.1,9.22,33.4,33.4,0,0,1-15.78,3.53A37.71,37.71,0,0,1,866.19,602.4Z"/><path class="cls-2" d="M396.69,120.25l-.09-.26-27-76.72c-6.3-17.63,6.33-36.87,25.08-37h.38V0H235.12V6.23h.58a55.8,55.8,0,0,1,5.82.34c24.68,2.42,46,19.3,54.84,42.83l10.22,27.07,54.27,144.6,82.42,218.7A13.51,13.51,0,0,0,459.58,448a14,14,0,0,0,9.12-8.68l16.84-56.46a23.19,23.19,0,0,0-.37-14.36Z"/><path class="cls-2" d="M548.14,0V6.26a42.79,42.79,0,0,1,42,33.77c2.59,12.39,2.15,26.38-.1,40.55a178.48,178.48,0,0,1-8.55,32.47l-40,128.7a.14.14,0,0,0,.26.09l43.8-113.94A268.91,268.91,0,0,1,631,49.25a197.85,197.85,0,0,1,23.28-23.72A83.31,83.31,0,0,1,708.08,6.26V0Z"/><path class="cls-1" d="M330,408.48c-2.9-13.86-2-30.37,1-47,1.54-8.65,17.22-63.94,26.5-96.39a1,1,0,0,0-1.84-.62c-14.35,37.3-38.19,95.18-52.51,115.7C291.64,396.7,279,411.92,265.9,423a83.28,83.28,0,0,1-53.82,19.27v6.23H372v-6.23A42.84,42.84,0,0,1,330,408.48Z"/><path class="cls-1" d="M648,442.37l0,6.14h-160l.1-6.14h.41c19.81-.2,33.26-20.39,26.69-39.08l-1.5-4.26-.68-2-37.41-97.33h.14l-6.23-17.84L437.79,191.4,422,146.29a151.21,151.21,0,0,1-1.29-96l10.09-31.54a9.46,9.46,0,0,1,10.75-6.09,10,10,0,0,1,7.26,6.57l51,142.44,6.06,17,26.69,74.62,0,.12,51.17,133.16,8.54,23.94a44.64,44.64,0,0,0,26.87,26.92l.23.07A86.85,86.85,0,0,0,648,442.37Z"/></g></g></svg>